<svg xmlns="http://www.w3.org/2000/svg" viewBox="0 0 760 400" width="760" height="400" font-family="-apple-system,Segoe UI,Roboto,sans-serif" role="img"><title>Hand-rolled vs the libraries</title><desc>Throughput in millions of ops/sec versus cores, uniform keys, pinned i7; read-only and write-heavy panels comparing sharded, xsync, otter, sync.Map and copy-on-write.</desc><text x="20" y="24" font-size="15" font-weight="500" fill="#2C2C2A">hand-rolled vs the libraries &#8212; throughput vs cores (uniform)</text><line x1="20.0" y1="40" x2="42.0" y2="40" stroke="#534AB7" stroke-width="3"/><text x="47.0" y="44" font-size="12" fill="#2C2C2A">xsync</text><line x1="101.0" y1="40" x2="123.0" y2="40" stroke="#1D9E75" stroke-width="3"/><text x="128.0" y="44" font-size="12" fill="#2C2C2A">sharded</text><line x1="196.4" y1="40" x2="218.4" y2="40" stroke="#BA7517" stroke-width="3" stroke-dasharray="2,3"/><text x="223.4" y="44" font-size="12" fill="#2C2C2A">sync.Map</text><line x1="299.0" y1="40" x2="321.0" y2="40" stroke="#D4537E" stroke-width="3" stroke-dasharray="6,4"/><text x="326.0" y="44" font-size="12" fill="#2C2C2A">otter</text><line x1="380.0" y1="40" x2="402.0" y2="40" stroke="#D85A30" stroke-width="3" stroke-dasharray="8,4,2,4"/><text x="407.0" y="44" font-size="12" fill="#2C2C2A">cow</text><text x="56.0" y="68.0" font-size="13" font-weight="500" fill="#2C2C2A">read-only</text><line x1="56.0" y1="358.0" x2="361.0" y2="358.0" stroke="rgba(120,120,120,0.18)" stroke-width="1"/><text x="51.0" y="361.0" font-size="10" fill="#5F5E5A" text-anchor="end">0</text><line x1="56.0" y1="264.7" x2="361.0" y2="264.7" stroke="rgba(120,120,120,0.18)" stroke-width="1"/><text x="51.0" y="267.7" font-size="10" fill="#5F5E5A" text-anchor="end">30</text><line x1="56.0" y1="171.3" x2="361.0" y2="171.3" stroke="rgba(120,120,120,0.18)" stroke-width="1"/><text x="51.0" y="174.3" font-size="10" fill="#5F5E5A" text-anchor="end">60</text><line x1="56.0" y1="78.0" x2="361.0" y2="78.0" stroke="rgba(120,120,120,0.18)" stroke-width="1"/><text x="51.0" y="81.0" font-size="10" fill="#5F5E5A" text-anchor="end">90</text><text x="56.0" y="373.0" font-size="10" fill="#5F5E5A" text-anchor="middle">1</text><text x="157.7" y="373.0" font-size="10" fill="#5F5E5A" text-anchor="middle">2</text><text x="259.3" y="373.0" font-size="10" fill="#5F5E5A" text-anchor="middle">4</text><text x="361.0" y="373.0" font-size="10" fill="#5F5E5A" text-anchor="middle">8</text><text x="208.5" y="386.0" font-size="10" fill="#5F5E5A" text-anchor="middle">cores</text><text x="21.0" y="218.0" font-size="10" fill="#5F5E5A" text-anchor="middle" transform="rotate(-90 21.0 218.0)">Mops/s</text><polyline points="56.0,346.2 157.7,333.7 259.3,307.6 361.0,259.1" fill="none" stroke="#BA7517" stroke-width="2.0" stroke-dasharray="2,3"/><circle cx="56.0" cy="346.2" r="2.6" fill="#BA7517"/><circle cx="157.7" cy="333.7" r="2.6" fill="#BA7517"/><circle cx="259.3" cy="307.6" r="2.6" fill="#BA7517"/><circle cx="361.0" cy="259.1" r="2.6" fill="#BA7517"/><polyline points="56.0,346.8 157.7,335.6 259.3,310.7 361.0,260.6" fill="none" stroke="#D4537E" stroke-width="2.0" stroke-dasharray="6,4"/><circle cx="56.0" cy="346.8" r="2.6" fill="#D4537E"/><circle cx="157.7" cy="335.6" r="2.6" fill="#D4537E"/><circle cx="259.3" cy="310.7" r="2.6" fill="#D4537E"/><circle cx="361.0" cy="260.6" r="2.6" fill="#D4537E"/><polyline points="56.0,337.2 157.7,316.3 259.3,277.7 361.0,214.6" fill="none" stroke="#1D9E75" stroke-width="3.0"/><circle cx="56.0" cy="337.2" r="2.6" fill="#1D9E75"/><circle cx="157.7" cy="316.3" r="2.6" fill="#1D9E75"/><circle cx="259.3" cy="277.7" r="2.6" fill="#1D9E75"/><circle cx="361.0" cy="214.6" r="2.6" fill="#1D9E75"/><polyline points="56.0,335.3 157.7,310.4 259.3,257.8 361.0,156.1" fill="none" stroke="#534AB7" stroke-width="3.0"/><circle cx="56.0" cy="335.3" r="2.6" fill="#534AB7"/><circle cx="157.7" cy="310.4" r="2.6" fill="#534AB7"/><circle cx="259.3" cy="257.8" r="2.6" fill="#534AB7"/><circle cx="361.0" cy="156.1" r="2.6" fill="#534AB7"/><polyline points="56.0,327.8 157.7,293.9 259.3,228.0 361.0,98.8" fill="none" stroke="#D85A30" stroke-width="2.0" stroke-dasharray="8,4,2,4"/><circle cx="56.0" cy="327.8" r="2.6" fill="#D85A30"/><circle cx="157.7" cy="293.9" r="2.6" fill="#D85A30"/><circle cx="259.3" cy="228.0" r="2.6" fill="#D85A30"/><circle cx="361.0" cy="98.8" r="2.6" fill="#D85A30"/><text x="431.0" y="68.0" font-size="13" font-weight="500" fill="#2C2C2A">write-heavy</text><line x1="431.0" y1="358.0" x2="736.0" y2="358.0" stroke="rgba(120,120,120,0.18)" stroke-width="1"/><text x="426.0" y="361.0" font-size="10" fill="#5F5E5A" text-anchor="end">0</text><line x1="431.0" y1="264.7" x2="736.0" y2="264.7" stroke="rgba(120,120,120,0.18)" stroke-width="1"/><text x="426.0" y="267.7" font-size="10" fill="#5F5E5A" text-anchor="end">30</text><line x1="431.0" y1="171.3" x2="736.0" y2="171.3" stroke="rgba(120,120,120,0.18)" stroke-width="1"/><text x="426.0" y="174.3" font-size="10" fill="#5F5E5A" text-anchor="end">60</text><line x1="431.0" y1="78.0" x2="736.0" y2="78.0" stroke="rgba(120,120,120,0.18)" stroke-width="1"/><text x="426.0" y="81.0" font-size="10" fill="#5F5E5A" text-anchor="end">90</text><text x="431.0" y="373.0" font-size="10" fill="#5F5E5A" text-anchor="middle">1</text><text x="532.7" y="373.0" font-size="10" fill="#5F5E5A" text-anchor="middle">2</text><text x="634.3" y="373.0" font-size="10" fill="#5F5E5A" text-anchor="middle">4</text><text x="736.0" y="373.0" font-size="10" fill="#5F5E5A" text-anchor="middle">8</text><text x="583.5" y="386.0" font-size="10" fill="#5F5E5A" text-anchor="middle">cores</text><text x="396.0" y="218.0" font-size="10" fill="#5F5E5A" text-anchor="middle" transform="rotate(-90 396.0 218.0)">Mops/s</text><polyline points="431.0,353.6 532.7,348.7 634.3,336.2 736.0,317.6" fill="none" stroke="#BA7517" stroke-width="2.0" stroke-dasharray="2,3"/><circle cx="431.0" cy="353.6" r="2.6" fill="#BA7517"/><circle cx="532.7" cy="348.7" r="2.6" fill="#BA7517"/><circle cx="634.3" cy="336.2" r="2.6" fill="#BA7517"/><circle cx="736.0" cy="317.6" r="2.6" fill="#BA7517"/><polyline points="431.0,353.3 532.7,349.3 634.3,349.0 736.0,349.0" fill="none" stroke="#D4537E" stroke-width="2.0" stroke-dasharray="6,4"/><circle cx="431.0" cy="353.3" r="2.6" fill="#D4537E"/><circle cx="532.7" cy="349.3" r="2.6" fill="#D4537E"/><circle cx="634.3" cy="349.0" r="2.6" fill="#D4537E"/><circle cx="736.0" cy="349.0" r="2.6" fill="#D4537E"/><polyline points="431.0,338.7 532.7,321.0 634.3,288.0 736.0,236.4" fill="none" stroke="#1D9E75" stroke-width="3.0"/><circle cx="431.0" cy="338.7" r="2.6" fill="#1D9E75"/><circle cx="532.7" cy="321.0" r="2.6" fill="#1D9E75"/><circle cx="634.3" cy="288.0" r="2.6" fill="#1D9E75"/><circle cx="736.0" cy="236.4" r="2.6" fill="#1D9E75"/><polyline points="431.0,347.1 532.7,335.6 634.3,313.8 736.0,270.3" fill="none" stroke="#534AB7" stroke-width="3.0"/><circle cx="431.0" cy="347.1" r="2.6" fill="#534AB7"/><circle cx="532.7" cy="335.6" r="2.6" fill="#534AB7"/><circle cx="634.3" cy="313.8" r="2.6" fill="#534AB7"/><circle cx="736.0" cy="270.3" r="2.6" fill="#534AB7"/><polyline points="431.0,358.0 532.7,358.0 634.3,358.0 736.0,358.0" fill="none" stroke="#D85A30" stroke-width="2.0" stroke-dasharray="8,4,2,4"/><circle cx="431.0" cy="358.0" r="2.6" fill="#D85A30"/><circle cx="532.7" cy="358.0" r="2.6" fill="#D85A30"/><circle cx="634.3" cy="358.0" r="2.6" fill="#D85A30"/><circle cx="736.0" cy="358.0" r="2.6" fill="#D85A30"/></svg>