<svg xmlns="http://www.w3.org/2000/svg" viewBox="0 0 720 460" width="720" height="460" font-family="-apple-system,Segoe UI,Roboto,sans-serif" role="img"><title>Scaling efficiency (read-only, uniform)</title><desc>Throughput speedup relative to a single core versus GOMAXPROCS, read-only uniform workload, with an ideal linear-scaling reference.</desc><text x="20" y="26" font-size="15" font-weight="500" fill="#2C2C2A">scaling efficiency &#8212; read-only, uniform</text><text x="20" y="44" font-size="12" fill="#5F5E5A">speedup vs 1 core; dotted line = perfect linear scaling</text><line x1="20.0" y1="60.0" x2="42.0" y2="60.0" stroke="#5F5E5A" stroke-width="3"/><text x="47.0" y="64.0" font-size="12" fill="#2C2C2A">mutex</text><line x1="104.5" y1="60.0" x2="126.5" y2="60.0" stroke="#378ADD" stroke-width="3" stroke-dasharray="6,4"/><text x="131.5" y="64.0" font-size="12" fill="#2C2C2A">rwmutex</text><line x1="204.0" y1="60.0" x2="226.0" y2="60.0" stroke="#BA7517" stroke-width="3" stroke-dasharray="2,3"/><text x="231.0" y="64.0" font-size="12" fill="#2C2C2A">syncmap</text><line x1="303.5" y1="60.0" x2="325.5" y2="60.0" stroke="#1D9E75" stroke-width="3"/><text x="330.5" y="64.0" font-size="12" fill="#2C2C2A">sharded</text><line x1="403.0" y1="60.0" x2="425.0" y2="60.0" stroke="#D85A30" stroke-width="3" stroke-dasharray="8,4,2,4"/><text x="430.0" y="64.0" font-size="12" fill="#2C2C2A">cow</text><line x1="60.0" y1="400.0" x2="700.0" y2="400.0" stroke="rgba(120,120,120,0.18)" stroke-width="1"/><text x="54.0" y="403.0" font-size="10" fill="#5F5E5A" text-anchor="end">0&#215;</text><line x1="60.0" y1="363.3" x2="700.0" y2="363.3" stroke="rgba(120,120,120,0.18)" stroke-width="1"/><text x="54.0" y="366.3" font-size="10" fill="#5F5E5A" text-anchor="end">1&#215;</text><line x1="60.0" y1="326.7" x2="700.0" y2="326.7" stroke="rgba(120,120,120,0.18)" stroke-width="1"/><text x="54.0" y="329.7" font-size="10" fill="#5F5E5A" text-anchor="end">2&#215;</text><line x1="60.0" y1="290.0" x2="700.0" y2="290.0" stroke="rgba(120,120,120,0.18)" stroke-width="1"/><text x="54.0" y="293.0" font-size="10" fill="#5F5E5A" text-anchor="end">3&#215;</text><line x1="60.0" y1="253.3" x2="700.0" y2="253.3" stroke="rgba(120,120,120,0.18)" stroke-width="1"/><text x="54.0" y="256.3" font-size="10" fill="#5F5E5A" text-anchor="end">4&#215;</text><line x1="60.0" y1="216.7" x2="700.0" y2="216.7" stroke="rgba(120,120,120,0.18)" stroke-width="1"/><text x="54.0" y="219.7" font-size="10" fill="#5F5E5A" text-anchor="end">5&#215;</text><line x1="60.0" y1="180.0" x2="700.0" y2="180.0" stroke="rgba(120,120,120,0.18)" stroke-width="1"/><text x="54.0" y="183.0" font-size="10" fill="#5F5E5A" text-anchor="end">6&#215;</text><line x1="60.0" y1="143.3" x2="700.0" y2="143.3" stroke="rgba(120,120,120,0.18)" stroke-width="1"/><text x="54.0" y="146.3" font-size="10" fill="#5F5E5A" text-anchor="end">7&#215;</text><line x1="60.0" y1="106.7" x2="700.0" y2="106.7" stroke="rgba(120,120,120,0.18)" stroke-width="1"/><text x="54.0" y="109.7" font-size="10" fill="#5F5E5A" text-anchor="end">8&#215;</text><line x1="60.0" y1="70.0" x2="700.0" y2="70.0" stroke="rgba(120,120,120,0.18)" stroke-width="1"/><text x="54.0" y="73.0" font-size="10" fill="#5F5E5A" text-anchor="end">9&#215;</text><text x="60.0" y="418.0" font-size="11" fill="#5F5E5A" text-anchor="middle">1</text><text x="273.3" y="418.0" font-size="11" fill="#5F5E5A" text-anchor="middle">2</text><text x="486.7" y="418.0" font-size="11" fill="#5F5E5A" text-anchor="middle">4</text><text x="700.0" y="418.0" font-size="11" fill="#5F5E5A" text-anchor="middle">8</text><text x="380.0" y="438.0" font-size="11" fill="#5F5E5A" text-anchor="middle">GOMAXPROCS</text><text x="22" y="235.0" font-size="11" fill="#5F5E5A" text-anchor="middle" transform="rotate(-90 22 235.0)">speedup vs 1 core</text><polyline points="60.0,363.3 273.3,326.7 486.7,253.3 700.0,106.7" fill="none" stroke="#5F5E5A" stroke-width="1.5" stroke-dasharray="2,3"/><text x="696.0" y="102.7" font-size="10" fill="#5F5E5A" text-anchor="end">ideal 8&#215;</text><polyline points="60.0,363.3 273.3,372.7 486.7,374.2 700.0,375.6" fill="none" stroke="#5F5E5A" stroke-width="2.0"/><circle cx="60.0" cy="363.3" r="3" fill="#5F5E5A"/><circle cx="273.3" cy="372.7" r="3" fill="#5F5E5A"/><circle cx="486.7" cy="374.2" r="3" fill="#5F5E5A"/><circle cx="700.0" cy="375.6" r="3" fill="#5F5E5A"/><polyline points="60.0,363.3 273.3,336.3 486.7,328.6 700.0,328.6" fill="none" stroke="#378ADD" stroke-width="2.0" stroke-dasharray="6,4"/><circle cx="60.0" cy="363.3" r="3" fill="#378ADD"/><circle cx="273.3" cy="336.3" r="3" fill="#378ADD"/><circle cx="486.7" cy="328.6" r="3" fill="#378ADD"/><circle cx="700.0" cy="328.6" r="3" fill="#378ADD"/><polyline points="60.0,363.3 273.3,325.0 486.7,251.6 700.0,108.5" fill="none" stroke="#BA7517" stroke-width="2.0" stroke-dasharray="2,3"/><circle cx="60.0" cy="363.3" r="3" fill="#BA7517"/><circle cx="273.3" cy="325.0" r="3" fill="#BA7517"/><circle cx="486.7" cy="251.6" r="3" fill="#BA7517"/><circle cx="700.0" cy="108.5" r="3" fill="#BA7517"/><polyline points="60.0,363.3 273.3,329.8 486.7,269.2 700.0,164.2" fill="none" stroke="#1D9E75" stroke-width="3.0"/><circle cx="60.0" cy="363.3" r="3" fill="#1D9E75"/><circle cx="273.3" cy="329.8" r="3" fill="#1D9E75"/><circle cx="486.7" cy="269.2" r="3" fill="#1D9E75"/><circle cx="700.0" cy="164.2" r="3" fill="#1D9E75"/><polyline points="60.0,363.3 273.3,323.1 486.7,246.3 700.0,96.1" fill="none" stroke="#D85A30" stroke-width="2.0" stroke-dasharray="8,4,2,4"/><circle cx="60.0" cy="363.3" r="3" fill="#D85A30"/><circle cx="273.3" cy="323.1" r="3" fill="#D85A30"/><circle cx="486.7" cy="246.3" r="3" fill="#D85A30"/><circle cx="700.0" cy="96.1" r="3" fill="#D85A30"/></svg>