<svg xmlns="http://www.w3.org/2000/svg" viewBox="0 0 760 540" width="760" height="540" font-family="-apple-system,Segoe UI,Roboto,sans-serif" role="img"><title>Throughput vs cores by mix (uniform)</title><desc>Throughput in millions of ops/sec versus GOMAXPROCS for five cache implementations, uniform key distribution, one panel per read/write mix.</desc><text x="20" y="26" font-size="15" font-weight="500" fill="#2C2C2A">throughput vs cores by mix &#8212; uniform distribution (1M keys)</text><line x1="20.0" y1="48.0" x2="42.0" y2="48.0" stroke="#5F5E5A" stroke-width="3"/><text x="47.0" y="52.0" font-size="12" fill="#2C2C2A">mutex</text><line x1="104.5" y1="48.0" x2="126.5" y2="48.0" stroke="#378ADD" stroke-width="3" stroke-dasharray="6,4"/><text x="131.5" y="52.0" font-size="12" fill="#2C2C2A">rwmutex</text><line x1="204.0" y1="48.0" x2="226.0" y2="48.0" stroke="#BA7517" stroke-width="3" stroke-dasharray="2,3"/><text x="231.0" y="52.0" font-size="12" fill="#2C2C2A">syncmap</text><line x1="303.5" y1="48.0" x2="325.5" y2="48.0" stroke="#1D9E75" stroke-width="3"/><text x="330.5" y="52.0" font-size="12" fill="#2C2C2A">sharded</text><line x1="403.0" y1="48.0" x2="425.0" y2="48.0" stroke="#D85A30" stroke-width="3" stroke-dasharray="8,4,2,4"/><text x="430.0" y="52.0" font-size="12" fill="#2C2C2A">cow</text><text x="60.0" y="78.0" font-size="13" font-weight="500" fill="#2C2C2A">read-only (r100)</text><line x1="60.0" y1="265.0" x2="359.0" y2="265.0" stroke="rgba(120,120,120,0.18)" stroke-width="1"/><text x="54.0" y="268.0" font-size="10" fill="#5F5E5A" text-anchor="end">0</text><line x1="60.0" y1="221.2" x2="359.0" y2="221.2" stroke="rgba(120,120,120,0.18)" stroke-width="1"/><text x="54.0" y="224.2" font-size="10" fill="#5F5E5A" text-anchor="end">23</text><line x1="60.0" y1="177.5" x2="359.0" y2="177.5" stroke="rgba(120,120,120,0.18)" stroke-width="1"/><text x="54.0" y="180.5" font-size="10" fill="#5F5E5A" text-anchor="end">46</text><line x1="60.0" y1="133.8" x2="359.0" y2="133.8" stroke="rgba(120,120,120,0.18)" stroke-width="1"/><text x="54.0" y="136.8" font-size="10" fill="#5F5E5A" text-anchor="end">69</text><line x1="60.0" y1="90.0" x2="359.0" y2="90.0" stroke="rgba(120,120,120,0.18)" stroke-width="1"/><text x="54.0" y="93.0" font-size="10" fill="#5F5E5A" text-anchor="end">92</text><text x="60.0" y="281.0" font-size="10" fill="#5F5E5A" text-anchor="middle">1</text><text x="159.7" y="281.0" font-size="10" fill="#5F5E5A" text-anchor="middle">2</text><text x="259.3" y="281.0" font-size="10" fill="#5F5E5A" text-anchor="middle">4</text><text x="359.0" y="281.0" font-size="10" fill="#5F5E5A" text-anchor="middle">8</text><text x="209.5" y="295.0" font-size="10" fill="#5F5E5A" text-anchor="middle">GOMAXPROCS</text><text x="22.0" y="177.5" font-size="10" fill="#5F5E5A" text-anchor="middle" transform="rotate(-90 22.0 177.5)">Mops/s</text><polyline points="60.0,247.8 159.7,252.2 259.3,252.9 359.0,253.5" fill="none" stroke="#5F5E5A" stroke-width="2.0"/><circle cx="60.0" cy="247.8" r="2.6" fill="#5F5E5A"/><circle cx="159.7" cy="252.2" r="2.6" fill="#5F5E5A"/><circle cx="259.3" cy="252.9" r="2.6" fill="#5F5E5A"/><circle cx="359.0" cy="253.5" r="2.6" fill="#5F5E5A"/><polyline points="60.0,247.8 159.7,235.1 259.3,231.5 359.0,231.5" fill="none" stroke="#378ADD" stroke-width="2.0" stroke-dasharray="6,4"/><circle cx="60.0" cy="247.8" r="2.6" fill="#378ADD"/><circle cx="159.7" cy="235.1" r="2.6" fill="#378ADD"/><circle cx="259.3" cy="231.5" r="2.6" fill="#378ADD"/><circle cx="359.0" cy="231.5" r="2.6" fill="#378ADD"/><polyline points="60.0,256.8 159.7,248.3 259.3,231.9 359.0,200.1" fill="none" stroke="#BA7517" stroke-width="2.0" stroke-dasharray="2,3"/><circle cx="60.0" cy="256.8" r="2.6" fill="#BA7517"/><circle cx="159.7" cy="248.3" r="2.6" fill="#BA7517"/><circle cx="259.3" cy="231.9" r="2.6" fill="#BA7517"/><circle cx="359.0" cy="200.1" r="2.6" fill="#BA7517"/><polyline points="60.0,250.4 159.7,237.0 259.3,212.8 359.0,170.9" fill="none" stroke="#1D9E75" stroke-width="3.0"/><circle cx="60.0" cy="250.4" r="2.6" fill="#1D9E75"/><circle cx="159.7" cy="237.0" r="2.6" fill="#1D9E75"/><circle cx="259.3" cy="212.8" r="2.6" fill="#1D9E75"/><circle cx="359.0" cy="170.9" r="2.6" fill="#1D9E75"/><polyline points="60.0,244.4 159.7,221.8 259.3,178.7 359.0,94.4" fill="none" stroke="#D85A30" stroke-width="2.0" stroke-dasharray="8,4,2,4"/><circle cx="60.0" cy="244.4" r="2.6" fill="#D85A30"/><circle cx="159.7" cy="221.8" r="2.6" fill="#D85A30"/><circle cx="259.3" cy="178.7" r="2.6" fill="#D85A30"/><circle cx="359.0" cy="94.4" r="2.6" fill="#D85A30"/><text x="435.0" y="78.0" font-size="13" font-weight="500" fill="#2C2C2A">read-heavy (r90)</text><line x1="435.0" y1="265.0" x2="734.0" y2="265.0" stroke="rgba(120,120,120,0.18)" stroke-width="1"/><text x="429.0" y="268.0" font-size="10" fill="#5F5E5A" text-anchor="end">0</text><line x1="435.0" y1="221.2" x2="734.0" y2="221.2" stroke="rgba(120,120,120,0.18)" stroke-width="1"/><text x="429.0" y="224.2" font-size="10" fill="#5F5E5A" text-anchor="end">23</text><line x1="435.0" y1="177.5" x2="734.0" y2="177.5" stroke="rgba(120,120,120,0.18)" stroke-width="1"/><text x="429.0" y="180.5" font-size="10" fill="#5F5E5A" text-anchor="end">46</text><line x1="435.0" y1="133.8" x2="734.0" y2="133.8" stroke="rgba(120,120,120,0.18)" stroke-width="1"/><text x="429.0" y="136.8" font-size="10" fill="#5F5E5A" text-anchor="end">69</text><line x1="435.0" y1="90.0" x2="734.0" y2="90.0" stroke="rgba(120,120,120,0.18)" stroke-width="1"/><text x="429.0" y="93.0" font-size="10" fill="#5F5E5A" text-anchor="end">92</text><text x="435.0" y="281.0" font-size="10" fill="#5F5E5A" text-anchor="middle">1</text><text x="534.7" y="281.0" font-size="10" fill="#5F5E5A" text-anchor="middle">2</text><text x="634.3" y="281.0" font-size="10" fill="#5F5E5A" text-anchor="middle">4</text><text x="734.0" y="281.0" font-size="10" fill="#5F5E5A" text-anchor="middle">8</text><text x="584.5" y="295.0" font-size="10" fill="#5F5E5A" text-anchor="middle">GOMAXPROCS</text><text x="397.0" y="177.5" font-size="10" fill="#5F5E5A" text-anchor="middle" transform="rotate(-90 397.0 177.5)">Mops/s</text><polyline points="435.0,248.1 534.7,252.4 634.3,253.1 734.0,253.8" fill="none" stroke="#5F5E5A" stroke-width="2.0"/><circle cx="435.0" cy="248.1" r="2.6" fill="#5F5E5A"/><circle cx="534.7" cy="252.4" r="2.6" fill="#5F5E5A"/><circle cx="634.3" cy="253.1" r="2.6" fill="#5F5E5A"/><circle cx="734.0" cy="253.8" r="2.6" fill="#5F5E5A"/><polyline points="435.0,248.5 534.7,257.6 634.3,256.6 734.0,257.3" fill="none" stroke="#378ADD" stroke-width="2.0" stroke-dasharray="6,4"/><circle cx="435.0" cy="248.5" r="2.6" fill="#378ADD"/><circle cx="534.7" cy="257.6" r="2.6" fill="#378ADD"/><circle cx="634.3" cy="256.6" r="2.6" fill="#378ADD"/><circle cx="734.0" cy="257.3" r="2.6" fill="#378ADD"/><polyline points="435.0,258.0 534.7,250.7 634.3,236.9 734.0,211.6" fill="none" stroke="#BA7517" stroke-width="2.0" stroke-dasharray="2,3"/><circle cx="435.0" cy="258.0" r="2.6" fill="#BA7517"/><circle cx="534.7" cy="250.7" r="2.6" fill="#BA7517"/><circle cx="634.3" cy="236.9" r="2.6" fill="#BA7517"/><circle cx="734.0" cy="211.6" r="2.6" fill="#BA7517"/><polyline points="435.0,250.5 534.7,237.7 634.3,214.7 734.0,175.2" fill="none" stroke="#1D9E75" stroke-width="3.0"/><circle cx="435.0" cy="250.5" r="2.6" fill="#1D9E75"/><circle cx="534.7" cy="237.7" r="2.6" fill="#1D9E75"/><circle cx="634.3" cy="214.7" r="2.6" fill="#1D9E75"/><circle cx="734.0" cy="175.2" r="2.6" fill="#1D9E75"/><polyline points="435.0,265.0 534.7,265.0 634.3,265.0 734.0,265.0" fill="none" stroke="#D85A30" stroke-width="2.0" stroke-dasharray="8,4,2,4"/><circle cx="435.0" cy="265.0" r="2.6" fill="#D85A30"/><circle cx="534.7" cy="265.0" r="2.6" fill="#D85A30"/><circle cx="634.3" cy="265.0" r="2.6" fill="#D85A30"/><circle cx="734.0" cy="265.0" r="2.6" fill="#D85A30"/><text x="60.0" y="319.0" font-size="13" font-weight="500" fill="#2C2C2A">balanced (r50)</text><line x1="60.0" y1="506.0" x2="359.0" y2="506.0" stroke="rgba(120,120,120,0.18)" stroke-width="1"/><text x="54.0" y="509.0" font-size="10" fill="#5F5E5A" text-anchor="end">0</text><line x1="60.0" y1="462.2" x2="359.0" y2="462.2" stroke="rgba(120,120,120,0.18)" stroke-width="1"/><text x="54.0" y="465.2" font-size="10" fill="#5F5E5A" text-anchor="end">23</text><line x1="60.0" y1="418.5" x2="359.0" y2="418.5" stroke="rgba(120,120,120,0.18)" stroke-width="1"/><text x="54.0" y="421.5" font-size="10" fill="#5F5E5A" text-anchor="end">46</text><line x1="60.0" y1="374.8" x2="359.0" y2="374.8" stroke="rgba(120,120,120,0.18)" stroke-width="1"/><text x="54.0" y="377.8" font-size="10" fill="#5F5E5A" text-anchor="end">69</text><line x1="60.0" y1="331.0" x2="359.0" y2="331.0" stroke="rgba(120,120,120,0.18)" stroke-width="1"/><text x="54.0" y="334.0" font-size="10" fill="#5F5E5A" text-anchor="end">92</text><text x="60.0" y="522.0" font-size="10" fill="#5F5E5A" text-anchor="middle">1</text><text x="159.7" y="522.0" font-size="10" fill="#5F5E5A" text-anchor="middle">2</text><text x="259.3" y="522.0" font-size="10" fill="#5F5E5A" text-anchor="middle">4</text><text x="359.0" y="522.0" font-size="10" fill="#5F5E5A" text-anchor="middle">8</text><text x="209.5" y="536.0" font-size="10" fill="#5F5E5A" text-anchor="middle">GOMAXPROCS</text><text x="22.0" y="418.5" font-size="10" fill="#5F5E5A" text-anchor="middle" transform="rotate(-90 22.0 418.5)">Mops/s</text><polyline points="60.0,490.7 159.7,494.6 259.3,494.9 359.0,495.4" fill="none" stroke="#5F5E5A" stroke-width="2.0"/><circle cx="60.0" cy="490.7" r="2.6" fill="#5F5E5A"/><circle cx="159.7" cy="494.6" r="2.6" fill="#5F5E5A"/><circle cx="259.3" cy="494.9" r="2.6" fill="#5F5E5A"/><circle cx="359.0" cy="495.4" r="2.6" fill="#5F5E5A"/><polyline points="60.0,489.5 159.7,499.1 259.3,497.9 359.0,498.1" fill="none" stroke="#378ADD" stroke-width="2.0" stroke-dasharray="6,4"/><circle cx="60.0" cy="489.5" r="2.6" fill="#378ADD"/><circle cx="159.7" cy="499.1" r="2.6" fill="#378ADD"/><circle cx="259.3" cy="497.9" r="2.6" fill="#378ADD"/><circle cx="359.0" cy="498.1" r="2.6" fill="#378ADD"/><polyline points="60.0,500.9 159.7,497.2 259.3,487.7 359.0,471.5" fill="none" stroke="#BA7517" stroke-width="2.0" stroke-dasharray="2,3"/><circle cx="60.0" cy="500.9" r="2.6" fill="#BA7517"/><circle cx="159.7" cy="497.2" r="2.6" fill="#BA7517"/><circle cx="259.3" cy="487.7" r="2.6" fill="#BA7517"/><circle cx="359.0" cy="471.5" r="2.6" fill="#BA7517"/><polyline points="60.0,491.7 159.7,480.1 259.3,458.5 359.0,421.9" fill="none" stroke="#1D9E75" stroke-width="3.0"/><circle cx="60.0" cy="491.7" r="2.6" fill="#1D9E75"/><circle cx="159.7" cy="480.1" r="2.6" fill="#1D9E75"/><circle cx="259.3" cy="458.5" r="2.6" fill="#1D9E75"/><circle cx="359.0" cy="421.9" r="2.6" fill="#1D9E75"/><polyline points="60.0,506.0 159.7,506.0 259.3,506.0 359.0,506.0" fill="none" stroke="#D85A30" stroke-width="2.0" stroke-dasharray="8,4,2,4"/><circle cx="60.0" cy="506.0" r="2.6" fill="#D85A30"/><circle cx="159.7" cy="506.0" r="2.6" fill="#D85A30"/><circle cx="259.3" cy="506.0" r="2.6" fill="#D85A30"/><circle cx="359.0" cy="506.0" r="2.6" fill="#D85A30"/><text x="435.0" y="319.0" font-size="13" font-weight="500" fill="#2C2C2A">write-heavy (r10)</text><line x1="435.0" y1="506.0" x2="734.0" y2="506.0" stroke="rgba(120,120,120,0.18)" stroke-width="1"/><text x="429.0" y="509.0" font-size="10" fill="#5F5E5A" text-anchor="end">0</text><line x1="435.0" y1="462.2" x2="734.0" y2="462.2" stroke="rgba(120,120,120,0.18)" stroke-width="1"/><text x="429.0" y="465.2" font-size="10" fill="#5F5E5A" text-anchor="end">23</text><line x1="435.0" y1="418.5" x2="734.0" y2="418.5" stroke="rgba(120,120,120,0.18)" stroke-width="1"/><text x="429.0" y="421.5" font-size="10" fill="#5F5E5A" text-anchor="end">46</text><line x1="435.0" y1="374.8" x2="734.0" y2="374.8" stroke="rgba(120,120,120,0.18)" stroke-width="1"/><text x="429.0" y="377.8" font-size="10" fill="#5F5E5A" text-anchor="end">69</text><line x1="435.0" y1="331.0" x2="734.0" y2="331.0" stroke="rgba(120,120,120,0.18)" stroke-width="1"/><text x="429.0" y="334.0" font-size="10" fill="#5F5E5A" text-anchor="end">92</text><text x="435.0" y="522.0" font-size="10" fill="#5F5E5A" text-anchor="middle">1</text><text x="534.7" y="522.0" font-size="10" fill="#5F5E5A" text-anchor="middle">2</text><text x="634.3" y="522.0" font-size="10" fill="#5F5E5A" text-anchor="middle">4</text><text x="734.0" y="522.0" font-size="10" fill="#5F5E5A" text-anchor="middle">8</text><text x="584.5" y="536.0" font-size="10" fill="#5F5E5A" text-anchor="middle">GOMAXPROCS</text><text x="397.0" y="418.5" font-size="10" fill="#5F5E5A" text-anchor="middle" transform="rotate(-90 397.0 418.5)">Mops/s</text><polyline points="435.0,492.4 534.7,495.7 634.3,495.4 734.0,495.8" fill="none" stroke="#5F5E5A" stroke-width="2.0"/><circle cx="435.0" cy="492.4" r="2.6" fill="#5F5E5A"/><circle cx="534.7" cy="495.7" r="2.6" fill="#5F5E5A"/><circle cx="634.3" cy="495.4" r="2.6" fill="#5F5E5A"/><circle cx="734.0" cy="495.8" r="2.6" fill="#5F5E5A"/><polyline points="435.0,494.0 534.7,497.6 634.3,496.6 734.0,496.8" fill="none" stroke="#378ADD" stroke-width="2.0" stroke-dasharray="6,4"/><circle cx="435.0" cy="494.0" r="2.6" fill="#378ADD"/><circle cx="534.7" cy="497.6" r="2.6" fill="#378ADD"/><circle cx="634.3" cy="496.6" r="2.6" fill="#378ADD"/><circle cx="734.0" cy="496.8" r="2.6" fill="#378ADD"/><polyline points="435.0,502.9 534.7,499.8 634.3,492.2 734.0,479.4" fill="none" stroke="#BA7517" stroke-width="2.0" stroke-dasharray="2,3"/><circle cx="435.0" cy="502.9" r="2.6" fill="#BA7517"/><circle cx="534.7" cy="499.8" r="2.6" fill="#BA7517"/><circle cx="634.3" cy="492.2" r="2.6" fill="#BA7517"/><circle cx="734.0" cy="479.4" r="2.6" fill="#BA7517"/><polyline points="435.0,492.2 534.7,481.1 634.3,461.0 734.0,426.4" fill="none" stroke="#1D9E75" stroke-width="3.0"/><circle cx="435.0" cy="492.2" r="2.6" fill="#1D9E75"/><circle cx="534.7" cy="481.1" r="2.6" fill="#1D9E75"/><circle cx="634.3" cy="461.0" r="2.6" fill="#1D9E75"/><circle cx="734.0" cy="426.4" r="2.6" fill="#1D9E75"/><polyline points="435.0,506.0 534.7,506.0 634.3,506.0 734.0,506.0" fill="none" stroke="#D85A30" stroke-width="2.0" stroke-dasharray="8,4,2,4"/><circle cx="435.0" cy="506.0" r="2.6" fill="#D85A30"/><circle cx="534.7" cy="506.0" r="2.6" fill="#D85A30"/><circle cx="634.3" cy="506.0" r="2.6" fill="#D85A30"/><circle cx="734.0" cy="506.0" r="2.6" fill="#D85A30"/></svg>