<svg xmlns="http://www.w3.org/2000/svg" viewBox="0 0 760 540" width="760" height="540" font-family="-apple-system,Segoe UI,Roboto,sans-serif" role="img"><title>Throughput vs cores by mix (uniform)</title><desc>Throughput in millions of ops/sec versus GOMAXPROCS for five cache implementations, uniform key distribution, one panel per read/write mix.</desc><text x="20" y="26" font-size="15" font-weight="500" fill="#2C2C2A">throughput vs cores by mix &#8212; uniform distribution (1M keys)</text><line x1="20.0" y1="48.0" x2="42.0" y2="48.0" stroke="#5F5E5A" stroke-width="3"/><text x="47.0" y="52.0" font-size="12" fill="#2C2C2A">mutex</text><line x1="104.5" y1="48.0" x2="126.5" y2="48.0" stroke="#378ADD" stroke-width="3" stroke-dasharray="6,4"/><text x="131.5" y="52.0" font-size="12" fill="#2C2C2A">rwmutex</text><line x1="204.0" y1="48.0" x2="226.0" y2="48.0" stroke="#BA7517" stroke-width="3" stroke-dasharray="2,3"/><text x="231.0" y="52.0" font-size="12" fill="#2C2C2A">syncmap</text><line x1="303.5" y1="48.0" x2="325.5" y2="48.0" stroke="#1D9E75" stroke-width="3"/><text x="330.5" y="52.0" font-size="12" fill="#2C2C2A">sharded</text><line x1="403.0" y1="48.0" x2="425.0" y2="48.0" stroke="#D85A30" stroke-width="3" stroke-dasharray="8,4,2,4"/><text x="430.0" y="52.0" font-size="12" fill="#2C2C2A">cow</text><text x="60.0" y="78.0" font-size="13" font-weight="500" fill="#2C2C2A">read-only (r100)</text><line x1="60.0" y1="265.0" x2="359.0" y2="265.0" stroke="rgba(120,120,120,0.18)" stroke-width="1"/><text x="54.0" y="268.0" font-size="10" fill="#5F5E5A" text-anchor="end">0</text><line x1="60.0" y1="221.2" x2="359.0" y2="221.2" stroke="rgba(120,120,120,0.18)" stroke-width="1"/><text x="54.0" y="224.2" font-size="10" fill="#5F5E5A" text-anchor="end">23</text><line x1="60.0" y1="177.5" x2="359.0" y2="177.5" stroke="rgba(120,120,120,0.18)" stroke-width="1"/><text x="54.0" y="180.5" font-size="10" fill="#5F5E5A" text-anchor="end">46</text><line x1="60.0" y1="133.8" x2="359.0" y2="133.8" stroke="rgba(120,120,120,0.18)" stroke-width="1"/><text x="54.0" y="136.8" font-size="10" fill="#5F5E5A" text-anchor="end">69</text><line x1="60.0" y1="90.0" x2="359.0" y2="90.0" stroke="rgba(120,120,120,0.18)" stroke-width="1"/><text x="54.0" y="93.0" font-size="10" fill="#5F5E5A" text-anchor="end">92</text><text x="60.0" y="281.0" font-size="10" fill="#5F5E5A" text-anchor="middle">1</text><text x="159.7" y="281.0" font-size="10" fill="#5F5E5A" text-anchor="middle">2</text><text x="259.3" y="281.0" font-size="10" fill="#5F5E5A" text-anchor="middle">4</text><text x="359.0" y="281.0" font-size="10" fill="#5F5E5A" text-anchor="middle">8</text><text x="209.5" y="295.0" font-size="10" fill="#5F5E5A" text-anchor="middle">GOMAXPROCS</text><text x="22.0" y="177.5" font-size="10" fill="#5F5E5A" text-anchor="middle" transform="rotate(-90 22.0 177.5)">Mops/s</text><polyline points="60.0,247.9 159.7,252.1 259.3,252.9 359.0,253.7" fill="none" stroke="#5F5E5A" stroke-width="2.0"/><circle cx="60.0" cy="247.9" r="2.6" fill="#5F5E5A"/><circle cx="159.7" cy="252.1" r="2.6" fill="#5F5E5A"/><circle cx="259.3" cy="252.9" r="2.6" fill="#5F5E5A"/><circle cx="359.0" cy="253.7" r="2.6" fill="#5F5E5A"/><polyline points="60.0,247.8 159.7,234.6 259.3,229.1 359.0,228.9" fill="none" stroke="#378ADD" stroke-width="2.0" stroke-dasharray="6,4"/><circle cx="60.0" cy="247.8" r="2.6" fill="#378ADD"/><circle cx="159.7" cy="234.6" r="2.6" fill="#378ADD"/><circle cx="259.3" cy="229.1" r="2.6" fill="#378ADD"/><circle cx="359.0" cy="228.9" r="2.6" fill="#378ADD"/><polyline points="60.0,257.5 159.7,249.2 259.3,233.0 359.0,201.9" fill="none" stroke="#BA7517" stroke-width="2.0" stroke-dasharray="2,3"/><circle cx="60.0" cy="257.5" r="2.6" fill="#BA7517"/><circle cx="159.7" cy="249.2" r="2.6" fill="#BA7517"/><circle cx="259.3" cy="233.0" r="2.6" fill="#BA7517"/><circle cx="359.0" cy="201.9" r="2.6" fill="#BA7517"/><polyline points="60.0,251.9 159.7,238.6 259.3,214.5 359.0,175.1" fill="none" stroke="#1D9E75" stroke-width="3.0"/><circle cx="60.0" cy="251.9" r="2.6" fill="#1D9E75"/><circle cx="159.7" cy="238.6" r="2.6" fill="#1D9E75"/><circle cx="259.3" cy="214.5" r="2.6" fill="#1D9E75"/><circle cx="359.0" cy="175.1" r="2.6" fill="#1D9E75"/><polyline points="60.0,247.0 159.7,224.2 259.3,181.5 359.0,99.6" fill="none" stroke="#D85A30" stroke-width="2.0" stroke-dasharray="8,4,2,4"/><circle cx="60.0" cy="247.0" r="2.6" fill="#D85A30"/><circle cx="159.7" cy="224.2" r="2.6" fill="#D85A30"/><circle cx="259.3" cy="181.5" r="2.6" fill="#D85A30"/><circle cx="359.0" cy="99.6" r="2.6" fill="#D85A30"/><text x="435.0" y="78.0" font-size="13" font-weight="500" fill="#2C2C2A">read-heavy (r90)</text><line x1="435.0" y1="265.0" x2="734.0" y2="265.0" stroke="rgba(120,120,120,0.18)" stroke-width="1"/><text x="429.0" y="268.0" font-size="10" fill="#5F5E5A" text-anchor="end">0</text><line x1="435.0" y1="221.2" x2="734.0" y2="221.2" stroke="rgba(120,120,120,0.18)" stroke-width="1"/><text x="429.0" y="224.2" font-size="10" fill="#5F5E5A" text-anchor="end">23</text><line x1="435.0" y1="177.5" x2="734.0" y2="177.5" stroke="rgba(120,120,120,0.18)" stroke-width="1"/><text x="429.0" y="180.5" font-size="10" fill="#5F5E5A" text-anchor="end">46</text><line x1="435.0" y1="133.8" x2="734.0" y2="133.8" stroke="rgba(120,120,120,0.18)" stroke-width="1"/><text x="429.0" y="136.8" font-size="10" fill="#5F5E5A" text-anchor="end">69</text><line x1="435.0" y1="90.0" x2="734.0" y2="90.0" stroke="rgba(120,120,120,0.18)" stroke-width="1"/><text x="429.0" y="93.0" font-size="10" fill="#5F5E5A" text-anchor="end">92</text><text x="435.0" y="281.0" font-size="10" fill="#5F5E5A" text-anchor="middle">1</text><text x="534.7" y="281.0" font-size="10" fill="#5F5E5A" text-anchor="middle">2</text><text x="634.3" y="281.0" font-size="10" fill="#5F5E5A" text-anchor="middle">4</text><text x="734.0" y="281.0" font-size="10" fill="#5F5E5A" text-anchor="middle">8</text><text x="584.5" y="295.0" font-size="10" fill="#5F5E5A" text-anchor="middle">GOMAXPROCS</text><text x="397.0" y="177.5" font-size="10" fill="#5F5E5A" text-anchor="middle" transform="rotate(-90 397.0 177.5)">Mops/s</text><polyline points="435.0,248.1 534.7,252.6 634.3,253.2 734.0,253.7" fill="none" stroke="#5F5E5A" stroke-width="2.0"/><circle cx="435.0" cy="248.1" r="2.6" fill="#5F5E5A"/><circle cx="534.7" cy="252.6" r="2.6" fill="#5F5E5A"/><circle cx="634.3" cy="253.2" r="2.6" fill="#5F5E5A"/><circle cx="734.0" cy="253.7" r="2.6" fill="#5F5E5A"/><polyline points="435.0,248.7 534.7,256.2 634.3,257.0 734.0,257.6" fill="none" stroke="#378ADD" stroke-width="2.0" stroke-dasharray="6,4"/><circle cx="435.0" cy="248.7" r="2.6" fill="#378ADD"/><circle cx="534.7" cy="256.2" r="2.6" fill="#378ADD"/><circle cx="634.3" cy="257.0" r="2.6" fill="#378ADD"/><circle cx="734.0" cy="257.6" r="2.6" fill="#378ADD"/><polyline points="435.0,258.5 534.7,251.5 634.3,237.7 734.0,213.1" fill="none" stroke="#BA7517" stroke-width="2.0" stroke-dasharray="2,3"/><circle cx="435.0" cy="258.5" r="2.6" fill="#BA7517"/><circle cx="534.7" cy="251.5" r="2.6" fill="#BA7517"/><circle cx="634.3" cy="237.7" r="2.6" fill="#BA7517"/><circle cx="734.0" cy="213.1" r="2.6" fill="#BA7517"/><polyline points="435.0,251.9 534.7,239.6 634.3,216.5 734.0,179.0" fill="none" stroke="#1D9E75" stroke-width="3.0"/><circle cx="435.0" cy="251.9" r="2.6" fill="#1D9E75"/><circle cx="534.7" cy="239.6" r="2.6" fill="#1D9E75"/><circle cx="634.3" cy="216.5" r="2.6" fill="#1D9E75"/><circle cx="734.0" cy="179.0" r="2.6" fill="#1D9E75"/><polyline points="435.0,265.0 534.7,265.0 634.3,265.0 734.0,265.0" fill="none" stroke="#D85A30" stroke-width="2.0" stroke-dasharray="8,4,2,4"/><circle cx="435.0" cy="265.0" r="2.6" fill="#D85A30"/><circle cx="534.7" cy="265.0" r="2.6" fill="#D85A30"/><circle cx="634.3" cy="265.0" r="2.6" fill="#D85A30"/><circle cx="734.0" cy="265.0" r="2.6" fill="#D85A30"/><text x="60.0" y="319.0" font-size="13" font-weight="500" fill="#2C2C2A">balanced (r50)</text><line x1="60.0" y1="506.0" x2="359.0" y2="506.0" stroke="rgba(120,120,120,0.18)" stroke-width="1"/><text x="54.0" y="509.0" font-size="10" fill="#5F5E5A" text-anchor="end">0</text><line x1="60.0" y1="462.2" x2="359.0" y2="462.2" stroke="rgba(120,120,120,0.18)" stroke-width="1"/><text x="54.0" y="465.2" font-size="10" fill="#5F5E5A" text-anchor="end">23</text><line x1="60.0" y1="418.5" x2="359.0" y2="418.5" stroke="rgba(120,120,120,0.18)" stroke-width="1"/><text x="54.0" y="421.5" font-size="10" fill="#5F5E5A" text-anchor="end">46</text><line x1="60.0" y1="374.8" x2="359.0" y2="374.8" stroke="rgba(120,120,120,0.18)" stroke-width="1"/><text x="54.0" y="377.8" font-size="10" fill="#5F5E5A" text-anchor="end">69</text><line x1="60.0" y1="331.0" x2="359.0" y2="331.0" stroke="rgba(120,120,120,0.18)" stroke-width="1"/><text x="54.0" y="334.0" font-size="10" fill="#5F5E5A" text-anchor="end">92</text><text x="60.0" y="522.0" font-size="10" fill="#5F5E5A" text-anchor="middle">1</text><text x="159.7" y="522.0" font-size="10" fill="#5F5E5A" text-anchor="middle">2</text><text x="259.3" y="522.0" font-size="10" fill="#5F5E5A" text-anchor="middle">4</text><text x="359.0" y="522.0" font-size="10" fill="#5F5E5A" text-anchor="middle">8</text><text x="209.5" y="536.0" font-size="10" fill="#5F5E5A" text-anchor="middle">GOMAXPROCS</text><text x="22.0" y="418.5" font-size="10" fill="#5F5E5A" text-anchor="middle" transform="rotate(-90 22.0 418.5)">Mops/s</text><polyline points="60.0,490.8 159.7,495.1 259.3,495.6 359.0,496.0" fill="none" stroke="#5F5E5A" stroke-width="2.0"/><circle cx="60.0" cy="490.8" r="2.6" fill="#5F5E5A"/><circle cx="159.7" cy="495.1" r="2.6" fill="#5F5E5A"/><circle cx="259.3" cy="495.6" r="2.6" fill="#5F5E5A"/><circle cx="359.0" cy="496.0" r="2.6" fill="#5F5E5A"/><polyline points="60.0,492.1 159.7,497.5 259.3,498.9 359.0,499.3" fill="none" stroke="#378ADD" stroke-width="2.0" stroke-dasharray="6,4"/><circle cx="60.0" cy="492.1" r="2.6" fill="#378ADD"/><circle cx="159.7" cy="497.5" r="2.6" fill="#378ADD"/><circle cx="259.3" cy="498.9" r="2.6" fill="#378ADD"/><circle cx="359.0" cy="499.3" r="2.6" fill="#378ADD"/><polyline points="60.0,501.3 159.7,497.8 259.3,488.2 359.0,472.6" fill="none" stroke="#BA7517" stroke-width="2.0" stroke-dasharray="2,3"/><circle cx="60.0" cy="501.3" r="2.6" fill="#BA7517"/><circle cx="159.7" cy="497.8" r="2.6" fill="#BA7517"/><circle cx="259.3" cy="488.2" r="2.6" fill="#BA7517"/><circle cx="359.0" cy="472.6" r="2.6" fill="#BA7517"/><polyline points="60.0,493.0 159.7,481.4 259.3,459.7 359.0,425.2" fill="none" stroke="#1D9E75" stroke-width="3.0"/><circle cx="60.0" cy="493.0" r="2.6" fill="#1D9E75"/><circle cx="159.7" cy="481.4" r="2.6" fill="#1D9E75"/><circle cx="259.3" cy="459.7" r="2.6" fill="#1D9E75"/><circle cx="359.0" cy="425.2" r="2.6" fill="#1D9E75"/><polyline points="60.0,506.0 159.7,506.0 259.3,506.0 359.0,506.0" fill="none" stroke="#D85A30" stroke-width="2.0" stroke-dasharray="8,4,2,4"/><circle cx="60.0" cy="506.0" r="2.6" fill="#D85A30"/><circle cx="159.7" cy="506.0" r="2.6" fill="#D85A30"/><circle cx="259.3" cy="506.0" r="2.6" fill="#D85A30"/><circle cx="359.0" cy="506.0" r="2.6" fill="#D85A30"/><text x="435.0" y="319.0" font-size="13" font-weight="500" fill="#2C2C2A">write-heavy (r10)</text><line x1="435.0" y1="506.0" x2="734.0" y2="506.0" stroke="rgba(120,120,120,0.18)" stroke-width="1"/><text x="429.0" y="509.0" font-size="10" fill="#5F5E5A" text-anchor="end">0</text><line x1="435.0" y1="462.2" x2="734.0" y2="462.2" stroke="rgba(120,120,120,0.18)" stroke-width="1"/><text x="429.0" y="465.2" font-size="10" fill="#5F5E5A" text-anchor="end">23</text><line x1="435.0" y1="418.5" x2="734.0" y2="418.5" stroke="rgba(120,120,120,0.18)" stroke-width="1"/><text x="429.0" y="421.5" font-size="10" fill="#5F5E5A" text-anchor="end">46</text><line x1="435.0" y1="374.8" x2="734.0" y2="374.8" stroke="rgba(120,120,120,0.18)" stroke-width="1"/><text x="429.0" y="377.8" font-size="10" fill="#5F5E5A" text-anchor="end">69</text><line x1="435.0" y1="331.0" x2="734.0" y2="331.0" stroke="rgba(120,120,120,0.18)" stroke-width="1"/><text x="429.0" y="334.0" font-size="10" fill="#5F5E5A" text-anchor="end">92</text><text x="435.0" y="522.0" font-size="10" fill="#5F5E5A" text-anchor="middle">1</text><text x="534.7" y="522.0" font-size="10" fill="#5F5E5A" text-anchor="middle">2</text><text x="634.3" y="522.0" font-size="10" fill="#5F5E5A" text-anchor="middle">4</text><text x="734.0" y="522.0" font-size="10" fill="#5F5E5A" text-anchor="middle">8</text><text x="584.5" y="536.0" font-size="10" fill="#5F5E5A" text-anchor="middle">GOMAXPROCS</text><text x="397.0" y="418.5" font-size="10" fill="#5F5E5A" text-anchor="middle" transform="rotate(-90 397.0 418.5)">Mops/s</text><polyline points="435.0,492.2 534.7,496.1 634.3,496.5 734.0,496.8" fill="none" stroke="#5F5E5A" stroke-width="2.0"/><circle cx="435.0" cy="492.2" r="2.6" fill="#5F5E5A"/><circle cx="534.7" cy="496.1" r="2.6" fill="#5F5E5A"/><circle cx="634.3" cy="496.5" r="2.6" fill="#5F5E5A"/><circle cx="734.0" cy="496.8" r="2.6" fill="#5F5E5A"/><polyline points="435.0,492.8 534.7,497.5 634.3,497.4 734.0,497.4" fill="none" stroke="#378ADD" stroke-width="2.0" stroke-dasharray="6,4"/><circle cx="435.0" cy="492.8" r="2.6" fill="#378ADD"/><circle cx="534.7" cy="497.5" r="2.6" fill="#378ADD"/><circle cx="634.3" cy="497.4" r="2.6" fill="#378ADD"/><circle cx="734.0" cy="497.4" r="2.6" fill="#378ADD"/><polyline points="435.0,503.2 534.7,500.1 634.3,492.4 734.0,480.0" fill="none" stroke="#BA7517" stroke-width="2.0" stroke-dasharray="2,3"/><circle cx="435.0" cy="503.2" r="2.6" fill="#BA7517"/><circle cx="534.7" cy="500.1" r="2.6" fill="#BA7517"/><circle cx="634.3" cy="492.4" r="2.6" fill="#BA7517"/><circle cx="734.0" cy="480.0" r="2.6" fill="#BA7517"/><polyline points="435.0,493.1 534.7,482.2 634.3,462.1 734.0,429.8" fill="none" stroke="#1D9E75" stroke-width="3.0"/><circle cx="435.0" cy="493.1" r="2.6" fill="#1D9E75"/><circle cx="534.7" cy="482.2" r="2.6" fill="#1D9E75"/><circle cx="634.3" cy="462.1" r="2.6" fill="#1D9E75"/><circle cx="734.0" cy="429.8" r="2.6" fill="#1D9E75"/><polyline points="435.0,506.0 534.7,506.0 634.3,506.0 734.0,506.0" fill="none" stroke="#D85A30" stroke-width="2.0" stroke-dasharray="8,4,2,4"/><circle cx="435.0" cy="506.0" r="2.6" fill="#D85A30"/><circle cx="534.7" cy="506.0" r="2.6" fill="#D85A30"/><circle cx="634.3" cy="506.0" r="2.6" fill="#D85A30"/><circle cx="734.0" cy="506.0" r="2.6" fill="#D85A30"/></svg>